<svg width="416" height="448" viewBox="0 0 416 448" fill="none" xmlns="http://www.w3.org/2000/svg">
<path d="M416 16V48C416 52.2435 414.314 56.3131 411.314 59.3137C408.313 62.3143 404.243 64 400 64H352V432C352 436.243 350.314 440.313 347.314 443.314C344.313 446.314 340.243 448 336 448H304C299.757 448 295.687 446.314 292.686 443.314C289.686 440.313 288 436.243 288 432V64H256V432C256 436.243 254.314 440.313 251.314 443.314C248.313 446.314 244.243 448 240 448H208C203.757 448 199.687 446.314 196.686 443.314C193.686 440.313 192 436.243 192 432V320H160C117.565 320 76.8687 303.143 46.8629 273.137C16.8571 243.131 0 202.435 0 160C0 117.565 16.8571 76.8687 46.8629 46.8629C76.8687 16.8571 117.565 0 160 0H400C404.243 0 408.313 1.68571 411.314 4.68629C414.314 7.68687 416 11.7565 416 16Z" fill="#E7E7E7"/>
</svg>
